<svg xmlns="http://www.w3.org/2000/svg" viewBox="0 0 100 100">
  <defs>
    <linearGradient id="gradE" x1="0%" y1="0%" x2="100%" y2="100%">
      <stop offset="0%" stopColor="#00E5FF" />
      <stop offset="100%" stopColor="#2979FF" />
    </linearGradient>
    <linearGradient id="gradM" x1="0%" y1="0%" x2="100%" y2="100%">
      <stop offset="0%" stopColor="#D500F9" />
      <stop offset="100%" stopColor="#6A1B9A" />
    </linearGradient>
  </defs>
  
  <rect width="100" height="100" rx="24" fill="#0B0F19" />
  
  <path d="M28 60 A 15 15 0 0 1 28 40" stroke="#00E5FF" stroke-width="6" stroke-linecap="round" />
  <path d="M18 68 A 25 25 0 0 1 18 32" stroke="#00E5FF" stroke-width="5" stroke-linecap="round" opacity="0.5"/>
  <path d="M8 76 A 35 35 0 0 1 8 24" stroke="#00E5FF" stroke-width="4" stroke-linecap="round" opacity="0.2"/>

  <path d="M 52 35 L 38 35 L 38 65 L 52 65 M 38 50 L 48 50" fill="none" stroke="url(#gradE)" stroke-width="12" stroke-linecap="round" stroke-linejoin="round" />
  <path d="M 52 65 L 52 35 L 66 55 L 80 35 L 80 65" fill="none" stroke="url(#gradM)" stroke-width="12" stroke-linecap="round" stroke-linejoin="round" />
</svg>
