<svg xmlns="http://www.w3.org/2000/svg" viewBox="0 0 100 100">
  <defs>
    <linearGradient id="gradE" x1="0%" y1="0%" x2="0%" y2="100%">
      <stop offset="0%" stopColor="#00F5FF" />
      <stop offset="100%" stopColor="#0044FF" />
    </linearGradient>
    
    <linearGradient id="gradM" x1="0%" y1="0%" x2="0%" y2="100%">
      <stop offset="0%" stopColor="#FF00FF" />
      <stop offset="100%" stopColor="#5500FF" />
    </linearGradient>

    <filter id="glow" x="-20%" y="-20%" width="140%" height="140%">
      <feGaussianBlur stdDeviation="3" result="blur" />
      <feComposite in="SourceGraphic" in2="blur" operator="over" />
    </filter>
  </defs>

  <rect width="100" height="100" rx="22" fill="#0A0D14" />

  <g stroke="#00F5FF" fill="none" stroke-linecap="round">
    <path d="M 28 42 A 10 10 0 0 0 28 58" stroke-width="4" filter="url(#glow)"/>
    <path d="M 20 35 A 18 18 0 0 0 20 65" stroke-width="3" opacity="0.5"/>
    <path d="M 12 28 A 26 26 0 0 0 12 72" stroke-width="2" opacity="0.2"/>
  </g>

  <path d="M 48 32 L 38 32 C 35 32 33 34 33 37 L 33 63 C 33 66 35 68 38 68 L 48 68" 
        fill="none" stroke="url(#gradE)" stroke-width="13" stroke-linecap="round" stroke-linejoin="round" />
  <path d="M 33 50 L 44 50" fill="none" stroke="url(#gradE)" stroke-width="13" stroke-linecap="round" />

  <path d="M 48 68 L 48 32 L 63 52 L 78 32 L 78 68" 
        fill="none" stroke="url(#gradM)" stroke-width="13" stroke-linecap="round" stroke-linejoin="round" />
</svg>
